<?xml version="1.0" encoding="UTF-8" standalone="no"?>
<svg
   version="1.1"
   width="500"
   height="500"
   id="svg62"
   sodipodi:docname="logo.svg"
   inkscape:version="1.3.2 (091e20e, 2023-11-25, custom)"
   xmlns:inkscape="http://www.inkscape.org/namespaces/inkscape"
   xmlns:sodipodi="http://sodipodi.sourceforge.net/DTD/sodipodi-0.dtd"
   xmlns="http://www.w3.org/2000/svg"
   xmlns:svg="http://www.w3.org/2000/svg">
  <defs
     id="defs62" />
  <sodipodi:namedview
     id="namedview62"
     pagecolor="#505050"
     bordercolor="#eeeeee"
     borderopacity="1"
     inkscape:showpageshadow="0"
     inkscape:pageopacity="0"
     inkscape:pagecheckerboard="0"
     inkscape:deskcolor="#505050"
     inkscape:zoom="0.38820162"
     inkscape:cx="-95.311296"
     inkscape:cy="231.83829"
     inkscape:window-width="1366"
     inkscape:window-height="768"
     inkscape:window-x="-8"
     inkscape:window-y="-8"
     inkscape:window-maximized="1"
     inkscape:current-layer="svg62" />
  <path
     d="M 0,0 C 0.83168701,0.45922852 0.83168701,0.45922852 1.6801758,0.92773438 36.39692,20.375582 51.813579,53.958361 67.368652,88.9375 70.848353,96.737408 74.486171,104.46108 78.125,112.1875 88.702781,134.66101 98.969177,157.27712 109,180 99.43,180 89.86,180 80,180 70.361052,159.1653 60.739465,138.32399 51.281723,117.40627 47.578075,109.24091 43.792682,101.12717 40,93 c -2.64,28.71 -5.28,57.42 -8,87 -6.27,0 -12.54,0 -19,0 1.852394,-18.64232 3.819944,-37.24493 6.399151,-55.8023 0.697999,-5.07373 1.358223,-10.15255 2.019266,-15.23121 0.562298,-4.29479 1.149747,-8.58358 1.785929,-12.868101 C 27.57625,71.738021 27.57625,71.738021 19.441147,49.313919 18.457467,48.064614 17.447133,46.835632 16.406067,45.633728 14.399525,43.3023 12.756213,40.750723 11.0625,38.1875 9.7291551,36.442227 8.373247,34.714053 7,33 6.5713867,32.455371 6.1427734,31.910742 5.7011719,31.349609 -6.7170284,15.684369 -22.417842,2.6084821 -42.86499,-0.42504883 -45.783336,-0.72987066 -48.698571,-0.97456225 -51.625,-1.1875 -52.62918,-1.2693555 -53.633359,-1.3512109 -54.667969,-1.4355469 -57.111387,-1.6333474 -59.555121,-1.8213333 -62,-2 c 0,-1.32 0,-2.64 0,-4 19.094619,-5.845291 44.379896,-3.9380813 62,6 z"
     fill="#0E0E0E"
     id="path2"
     style="display:inline;fill:#000000;fill-opacity:1"
     transform="translate(110,47)" />
  <path
     d="m 0,0 c 9.57,0 19.14,0 29,0 0.845625,2.805 1.69125,5.61 2.5625,8.5 C 36.773033,25.24866 43.726952,40.421102 55,54 c 0.644531,0.803086 1.289062,1.606172 1.953125,2.433594 16.086,19.094677 37.937898,26.870351 62.189945,29.009033 2.28522,0.191786 4.57067,0.378418 6.85693,0.557373 0,1.65 0,3.3 0,5 C 98.604608,94.512956 68.272645,91.841545 45.5625,74.75 37.734751,68.452282 30.269629,61.878383 24,54 23.472773,53.345156 22.945547,52.690312 22.402344,52.015625 12.044797,38.205563 0,17.710197 0,0 Z"
     fill="#121212"
     id="path5"
     style="display:inline;fill:#000000;fill-opacity:1"
     transform="translate(369,318)" />
  <path
     d="M0 0 C5.28 0 10.56 0 16 0 C19.66091335 6.91221403 22.43001571 14.06220024 25.1875 21.375 C26.07602958 23.71644704 26.96531302 26.05760819 27.85546875 28.3984375 C28.24371826 29.42630371 28.63196777 30.45416992 29.03198242 31.51318359 C29.93628349 33.94948584 29.93628349 33.94948584 31 36 C31.38857178 34.94498291 31.77714355 33.88996582 32.17749023 32.80297852 C33.61530118 28.90139498 35.05672681 25.00115534 36.49926758 21.10131836 C37.1239587 19.41092986 37.74765937 17.72017501 38.37036133 16.02905273 C39.26385593 13.60304074 40.16086523 11.17835417 41.05859375 8.75390625 C41.3377916 7.99348526 41.61698944 7.23306427 41.90464783 6.44960022 C43.88612829 1.11387171 43.88612829 1.11387171 45 0 C47.86267567 -0.07325168 50.700719 -0.09238205 53.5625 -0.0625 C54.36880859 -0.05798828 55.17511719 -0.05347656 56.00585938 -0.04882812 C58.00393756 -0.03700518 60.00197783 -0.01906914 62 0 C62 1.98 62 3.96 62 6 C61.01 6.33 60.02 6.66 59 7 C57.41354643 10.17290713 57.87921787 13.58825384 57.90234375 17.0703125 C57.90446617 18.26465408 57.90446617 18.26465408 57.90663147 19.48312378 C57.91223655 22.0304538 57.92478986 24.57769647 57.9375 27.125 C57.94251435 28.85025915 57.94707737 30.57551967 57.95117188 32.30078125 C57.96220763 36.53388791 57.97947564 40.76692914 58 45 C59.65 45 61.3 45 63 45 C63 46.98 63 48.96 63 51 C56.07 51 49.14 51 42 51 C42 49.35 42 47.7 42 46 C44.475 45.505 44.475 45.505 47 45 C46.67 36.09 46.34 27.18 46 18 C41.71 29.22 37.42 40.44 33 52 C30.36 52 27.72 52 25 52 C21.69662394 45.05353898 18.54994602 38.07599999 15.6875 30.9375 C15.43339355 30.30706787 15.17928711 29.67663574 14.91748047 29.02709961 C13.72557192 26.01977902 12.78732528 23.14930113 12 20 C11.67 28.25 11.34 36.5 11 45 C12.65 45 14.3 45 16 45 C16 46.98 16 48.96 16 51 C10.39 51 4.78 51 -1 51 C-1 49.35 -1 47.7 -1 46 C0.32 45.34 1.64 44.68 3 44 C3.66 31.79 4.32 19.58 5 7 C3.35 7 1.7 7 0 7 C0 4.69 0 2.38 0 0 Z "
     fill="#1C1C1C"
     id="path6"
     style="fill:#000000;fill-opacity:1"
     transform="translate(114,247)" />
  <path
     d="M0 0 C0.66 0.66 1.32 1.32 2 2 C2.54785156 1.67902344 3.09570312 1.35804688 3.66015625 1.02734375 C7.93551085 -0.84981528 12.4348969 -0.67631157 17 0 C20.41311667 2.52570633 21.66637768 3.99913304 23 8 C23.08209792 9.77313851 23.10746294 11.54920775 23.09765625 13.32421875 C23.09443359 14.35224609 23.09121094 15.38027344 23.08789062 16.43945312 C23.07532227 18.04723633 23.07532227 18.04723633 23.0625 19.6875 C23.05798828 20.77095703 23.05347656 21.85441406 23.04882812 22.97070312 C23.03703743 25.64719085 23.02058063 28.32356777 23 31 C24.65 31 26.3 31 28 31 C28 32.98 28 34.96 28 37 C21.4 37 14.8 37 8 37 C8 35.35 8 33.7 8 32 C8.99 31.34 9.98 30.68 11 30 C11.4471412 28.02292606 11.4471412 28.02292606 11.36328125 25.75390625 C11.36231445 24.49803711 11.36231445 24.49803711 11.36132812 23.21679688 C11.34521484 22.34087891 11.32910156 21.46496094 11.3125 20.5625 C11.31572266 19.69044922 11.31894531 18.81839844 11.32226562 17.91992188 C11.35883845 12.65556302 11.35883845 12.65556302 9 8 C6.36 8.33 3.72 8.66 1 9 C1 16.26 1 23.52 1 31 C2.32 31 3.64 31 5 31 C5 32.98 5 34.96 5 37 C-1.6 37 -8.2 37 -15 37 C-15 35.35 -15 33.7 -15 32 C-14.01 31.67 -13.02 31.34 -12 31 C-10.79729036 28.59458071 -10.79683337 26.89633409 -10.68359375 24.2109375 C-10.64169922 23.26992188 -10.59980469 22.32890625 -10.55664062 21.359375 C-10.51732422 20.37453125 -10.47800781 19.3896875 -10.4375 18.375 C-10.39431641 17.38242187 -10.35113281 16.38984375 -10.30664062 15.3671875 C-10.20038931 12.91160162 -10.09835036 10.45591297 -10 8 C-11.65 8.33 -13.3 8.66 -15 9 C-15 6.69 -15 4.38 -15 2 C-13.43883181 1.66048381 -11.87598662 1.32867456 -10.3125 1 C-9.44238281 0.814375 -8.57226562 0.62875 -7.67578125 0.4375 C-5.02593851 0.00424104 -2.67696494 -0.21890003 0 0 Z "
     fill="#191919"
     id="path9"
     style="fill:#000000;fill-opacity:1"
     transform="translate(283,261)" />
  <path
     d="m 0,0 c 6.93,0 13.86,0 21,0 0.06188,1.670625 0.12375,3.34125 0.1875,5.0625 C 21.712065,10.877672 23.074568,13.709411 27,18 c 3.054053,1.899867 5.68909,2.343876 9.25,2.625 0.892031,0.07477 1.784062,0.149531 2.703125,0.226562 C 39.628594,20.900547 40.304062,20.949531 41,21 c 0,1.65 0,3.3 0,5 -24.42,0 -48.84,0 -74,0 0,-1.65 0,-3.3 0,-5 1.038984,-0.07477 2.077969,-0.149531 3.148438,-0.226563 9.576267,-0.840265 17.573431,-2.194415 24.4960933,-9.511718 C -2.4973793,7.5470261 -1.5550203,4.665061 0,0 Z"
     fill="#1B1B1B"
     id="path10"
     style="display:inline;fill:#000000;fill-opacity:1"
     transform="translate(112,318)" />
  <path
     d="m 0,0 c 5.94,0 11.88,0 18,0 0,5 0,5 -2,8 0.844711,2.537087 1.742621,4.785411 2.875,7.1875 0.295195,0.654199 0.590391,1.308398 0.894531,1.982422 C 20.500704,18.785579 21.248776,20.393568 22,22 c 2.046504,-3.069756 2.997046,-5.690842 4.125,-9.1875 0.353203,-1.08668 0.706406,-2.173359 1.070312,-3.2929687 C 27.460859,8.6880859 27.726406,7.8566406 28,7 27.34,6.67 26.68,6.34 26,6 26,4.02 26,2.04 26,0 30.29,0 34.58,0 39,0 39,6 39,6 37.191162,7.8759766 36.468079,8.5769043 35.744995,9.277832 35,10 c -1.152268,2.668712 -2.140464,5.238766 -3.058594,7.984375 -0.27103,0.774424 -0.542061,1.548849 -0.821304,2.346741 -0.86352,2.46931 -1.712093,4.943354 -2.557602,7.418884 -0.842502,2.461024 -1.688585,4.920477 -2.54689,7.376038 -0.532581,1.523902 -1.056439,3.050893 -1.569672,4.581421 C 22.251661,45.990779 19.662391,52.225073 14,56 10.5625,56.4375 10.5625,56.4375 7,56 4.5,53.8125 4.5,53.8125 3,51 c 0.1592248,-3.423333 0.5631237,-4.563124 3,-7 2.5,-0.3125 2.5,-0.3125 5,0 0.66,0.99 1.32,1.98 2,3 2.327767,-3.817539 3.380936,-6.414228 2.616943,-10.870361 C 14.262404,31.453878 11.773865,27.218895 9.5,22.9375 8.482026,21.013093 7.4713537,19.084803 6.46875,17.152344 6.0195117,16.306638 5.5702734,15.460933 5.1074219,14.5896 3.8834806,11.727531 3.3973295,9.0779004 3,6 2.01,6 1.02,6 0,6 0,4.02 0,2.04 0,0 Z"
     fill="#212121"
     id="path11"
     style="display:inline;fill:#000000;fill-opacity:1"
     transform="translate(180,262)" />
  <path
     d="m 0,0 c 7.26,0 14.52,0 22,0 0,1.98 0,3.96 0,6 -1.98,0.99 -1.98,0.99 -4,2 -0.33,12.21 -0.66,24.42 -1,37 1.65,0 3.3,0 5,0 0,1.98 0,3.96 0,6 -7.26,0 -14.52,0 -22,0 0,-1.65 0,-3.3 0,-5 1.32,-0.66 2.64,-1.32 4,-2 0.037584,-1.57467 0.037584,-1.57467 0.075928,-3.181152 0.094035,-3.887661 0.1942651,-7.775142 0.2963867,-11.662598 0.043364,-1.683876 0.085038,-3.367797 0.125,-5.051758 0.057668,-2.417779 0.1213721,-4.835335 0.1862793,-7.25293 C 4.708663,15.718673 4.708663,15.718673 4.734238,14.562897 4.8861283,9.2277434 4.8861283,9.2277434 6,7 4.02,7 2.04,7 0,7 0,4.69 0,2.38 0,0 Z"
     fill="#242424"
     id="path13"
     style="display:inline;fill:#000000;fill-opacity:1"
     transform="translate(241,247)" />
  <path
     d="M 0,0 C 5.94,0 11.88,0 18,0 18,5 18,5 17.378906,7.4882812 16.900882,10.657042 17.634586,12.287749 18.9375,15.1875 21,19.850847 21,19.850847 21,22 c 0.66,0 1.32,0 2,0 0.122461,-0.705117 0.244922,-1.410234 0.371094,-2.136719 C 24.034052,16.844968 24.981756,14.081106 26.0625,11.1875 26.424727,10.21168 26.786953,9.2358594 27.160156,8.2304688 27.437305,7.4944141 27.714453,6.7583594 28,6 c -0.99,0 -1.98,0 -3,0 0,-1.98 0,-3.96 0,-6 4.62,0 9.24,0 14,0 0,5.6649986 -0.576514,5.9482914 -4,10 -0.99205,2.013204 -1.909847,4.064218 -2.761719,6.140625 -0.478886,1.152422 -0.957773,2.304844 -1.451172,3.492187 -0.486621,1.193672 -0.973242,2.387344 -1.474609,3.617188 -0.981094,2.381025 -1.964062,4.761278 -2.949219,7.140625 -0.430144,1.052197 -0.860288,2.104395 -1.303467,3.188477 C 24,36 24,36 23,37 20.667026,37.04093 18.332948,37.04242 16,37 14.143844,32.90871 12.292561,28.815263 10.445801,24.719727 9.8166096,23.326216 9.1860809,21.933308 8.5541992,20.541016 7.6472063,18.541929 6.7450146,16.540737 5.84375,14.539063 5.5593909,13.915045 5.2750317,13.291028 4.9820557,12.648102 3,8.2277434 3,8.2277434 3,6 2.01,6 1.02,6 0,6 0,4.02 0,2.04 0,0 Z"
     fill="#222222"
     id="path14"
     style="display:inline;fill:#000000;fill-opacity:1"
     transform="translate(311,262)" />
  <path
     d="m 0,0 c 3.25,-0.375 3.25,-0.375 6,0 0,2.97 0,5.94 0,9 2.97,0 5.94,0 9,0 0,1.98 0,3.96 0,6 -2.97,0 -5.94,0 -9,0 0.1406616,3.271131 0.2873036,6.541804 0.4375,9.8125 0.039316,0.92877 0.078633,1.857539 0.1191406,2.814453 0.041895,0.892676 0.083789,1.785352 0.1269531,2.705078 0.036658,0.82218 0.073315,1.644361 0.111084,2.491455 C 6.9342777,35.179052 6.9342777,35.179052 8,38 c 2.970655,-0.342276 2.970655,-0.342276 6,-1 0.33,-0.66 0.66,-1.32 1,-2 1.32,0.33 2.64,0.66 4,1 0.33,1.32 0.66,2.64 1,4 -3.945186,4.031487 -7.220154,6.871673 -13.0117188,7.164062 C 3.4394221,46.871229 1.0231888,45.837625 -2,44 -5.8351887,38.522427 -5.3486971,33.03155 -5.1875,26.625 -5.173965,25.602773 -5.16043,24.580547 -5.146484,23.527344 -5.1113022,21.01768 -5.0620754,18.509119 -5,16 c -1.65,0 -3.3,0 -5,0 0,-2.31 0,-4.62 0,-7 C -8.63875,8.443125 -8.63875,8.443125 -7.25,7.875 -3.7891239,6.2162999 -3.7891239,6.2162999 -2,2.8125 -1.34,1.884375 -0.68,0.95625 0,0 Z"
     fill="#1B1B1B"
     id="path15"
     style="display:inline;fill:#000000;fill-opacity:1"
     transform="translate(384,253)" />
  <path
     d="M 0,0 C 9.24,0 18.48,0 28,0 24.625,9.9375 24.625,9.9375 23.572754,13.011475 21.682212,18.632373 20.180343,24.187705 19,30 17.35,30.33 15.7,30.66 14,31 0,3.319797 0,3.319797 0,0 Z"
     fill="#000000"
     id="path17"
     transform="translate(233,318)"
     style="display:inline" />
  <path
     d="m 0,0 c 0,10.23 0,20.46 0,31 1.32,0 2.64,0 4,0 0,1.98 0,3.96 0,6 -6.6,0 -13.2,0 -20,0 0,-1.65 0,-3.3 0,-5 0.99,-0.33 1.98,-0.66 3,-1 0.930089,-2.790267 1.186988,-4.765295 1.316406,-7.667969 0.0419,-0.892676 0.08379,-1.785351 0.126953,-2.705078 0.03932,-0.928769 0.07863,-1.857539 0.119141,-2.814453 0.04318,-0.940371 0.08637,-1.880742 0.130859,-2.849609 C -11.200613,12.642071 -11.09855,10.321147 -11,8 c -1.65,0.33 -3.3,0.66 -5,1 0,-2.31 0,-4.62 0,-7 1.540017,-0.3408733 3.082124,-0.6723095 4.625,-1 1.287773,-0.2784375 1.287773,-0.2784375 2.6015625,-0.5625 C -6,0 -6,0 0,0 Z"
     fill="#1B1B1B"
     id="path18"
     style="display:inline;fill:#000000;fill-opacity:1"
     transform="translate(368,261)" />
  <path
     d="M0 0 C1.9375 1.5625 1.9375 1.5625 3 4 C2.6875 7.75 2.6875 7.75 2 11 C-3.38023451 13.20100503 -3.38023451 13.20100503 -6.3125 12.25 C-8 11 -8 11 -9 9 C-9.44720497 3.74534161 -9.44720497 3.74534161 -7.875 1.125 C-5.08893958 -0.54663625 -3.18011138 -0.46376624 0 0 Z "
     fill="#323232"
     id="path21"
     style="fill:#000000;fill-opacity:1"
     transform="translate(366,243)" />
  <ellipse
     style="fill:#ad9551;fill-opacity:1;stroke-width:0.886195"
     id="path63"
     cx="429.88589"
     cy="210.89706"
     rx="18.74844"
     ry="16.816454" />
  <path
     style="fill:#ad9551;fill-opacity:1"
     d="m 337.4535,227.16932 50.87563,-89.83733 0.483,-8.04994 -2.73698,-4.99097 -3.38097,-2.73698 -3.21998,-1.44899 -4.34697,-0.48299 -2.57598,-0.483 -0.64399,-0.161 0.32199,-4.34697 75.18645,0.161 -0.161,4.50797 -6.11796,0.161 -3.46147,0.64399 -2.73698,0.483 -1.69049,0.40249 -1.77098,0.483 -1.60999,0.483 -1.20749,0.40249 -0.966,0.4025 -1.20749,0.48301 -1.69049,0.72448 -2.41498,1.28799 -2.81747,1.93199 -4.50797,3.48644 -4.18597,5.0465 -55.47658,91.44732 z"
     id="path64"
     sodipodi:nodetypes="cccccccccccccccccccccccccccc" />
  <path
     style="fill:#ad9551;fill-opacity:1"
     d="m 217.89618,114.98179 -0.45538,4.32604 h 7.51366 l 5.00911,0.68306 1.36612,0.91075 4.32605,2.73224 4.09836,2.50455 5.69217,2.95993 3.4153,2.73224 2.27686,1.59381 2.04918,2.04918 1.8215,1.59381 1.36612,2.04918 53.051,88.34244 23.9071,-0.22769 -47.35883,-89.0255 -1.36612,-5.69217 0.22769,-1.82149 0.45537,-2.73224 v -1.8215 L 286.20219,125 l 0.68306,-2.04918 1.82149,-0.91075 4.55373,-2.04918 4.09836,-0.45537 2.04918,-0.45537 1.8215,-0.68306 1.36612,0.45537 v -3.87067 z"
     id="path65" />
  <path
     style="display:inline;fill:#ad9551;fill-opacity:1"
     d="m 319.58264,317.97265 23.82783,-0.161 v 2.73698 l 0.16099,2.25399 0.322,1.12699 v 2.57598 1.60999 l 0.966,2.57598 0.48299,1.93199 1.44899,2.41498 0.644,0.96599 0.96599,1.12699 0.96599,1.12699 2.09299,1.60999 1.28799,0.644 2.41498,1.60999 1.93198,1.28799 1.93199,0.80499 9.17693,0.483 v 5.63495 l -73.25446,-0.48299 v -4.82997 l 5.15197,-0.80499 4.66896,-0.644 3.05898,-0.48299 1.93198,-1.60999 0.644,-0.644 1.44899,-1.77098 1.77099,-2.09299 1.77098,-2.57598 0.483,-0.48299 1.44899,-2.25399 1.77099,-4.34697 0.32199,-1.93198 z"
     id="path66" />
  <path
     style="display:inline;fill:#000000;fill-opacity:1"
     d="m 306.86374,176.4547 46.04566,-104.005235 5.15196,0.643996 15.45588,90.803329 -21.89583,37.99572 -9.65993,-65.36552 -26.08181,57.95957 z"
     id="path67" />
  <path
     style="display:inline;fill:#000000;fill-opacity:1"
     d="m 377.70321,190.94459 6.76195,36.06373 h -28.97978 z"
     id="path68" />
  <path
     style="display:inline;fill:#000000;fill-opacity:1"
     d="m 293.66183,201.57051 -9.33793,25.11582 17.70987,0.64399 3.21998,-6.76195 z"
     id="path69" />
  <ellipse
     style="fill:#000000;fill-opacity:1;stroke-width:1.02531"
     id="path70"
     cx="67.458504"
     cy="105.21273"
     rx="14.972889"
     ry="15.214388" />
</svg>
